<mxfile host="app.diagrams.net" modified="2023-06-02T06:42:26.496Z" agent="Mozilla/5.0 (Windows NT 10.0; Win64; x64) AppleWebKit/537.36 (KHTML, like Gecko) Chrome/113.0.0.0 Safari/537.36" version="21.3.2" etag="Sc9KyQFqAzqJI2aWF2H6" type="github">
  <diagram name="第 1 页" id="cfjaUml6cauruCm_5h0O">
    <mxGraphModel>
      <root>
        <mxCell id="0" />
        <mxCell id="1" parent="0" />
      </root>
    </mxGraphModel>
  </diagram>
</mxfile>
